<?xml version="1.0" encoding="UTF-8"?>
<svg version="1.1" xmlns="http://www.w3.org/2000/svg" width="76" height="74">
<path d="M0 0 C7.59093866 7.59093866 11.34506342 16.91781051 12.0625 27.5 C11.88115004 38.03844784 7.61886753 46.84788611 0.625 54.5 C-8.61445407 63.37393721 -19.08813028 64.26658681 -31.20703125 64.08984375 C-36.86414935 63.87852973 -41.3474326 62.80961866 -46.1875 59.8125 C-47.25484375 59.15894531 -47.25484375 59.15894531 -48.34375 58.4921875 C-56.76968485 52.73865736 -61.95784403 44.75253054 -64.1875 34.8125 C-65.49567867 23.49125278 -63.84077946 14.35273923 -57.203125 5.0234375 C-41.9859816 -13.26951148 -18.43703051 -12.65286408 0 0 Z " fill="#F8F9F9" transform="translate(64.1875,9.1875)"/>
<path d="M0 0 C1.625 0.875 1.625 0.875 2.625 3.875 C3.615 3.215 4.605 2.555 5.625 1.875 C8.3125 2.25 8.3125 2.25 10.625 2.875 C10.625 4.525 10.625 6.175 10.625 7.875 C13.1 8.37 13.1 8.37 15.625 8.875 C15.58375 9.803125 15.5425 10.73125 15.5 11.6875 C15.35363661 15.03309719 15.35363661 15.03309719 17.625 17.875 C13.47852775 21.03421695 10.88680564 22.57657408 5.625 21.875 C4.635 21.215 3.645 20.555 2.625 19.875 C1.14 22.35 1.14 22.35 -0.375 24.875 C5.895 24.875 12.165 24.875 18.625 24.875 C18.625 27.185 18.625 29.495 18.625 31.875 C9.055 31.875 -0.515 31.875 -10.375 31.875 C-10.375 24.07118529 -10.375 24.07118529 -7.8125 21.1875 C-6.34208306 19.61940478 -6.34208306 19.61940478 -5.375 17.875 C-5.70466891 15.16038255 -6.41722895 13.81081199 -7.9375 11.5 C-9.63554198 8.39922769 -9.61794519 6.35721436 -9.375 2.875 C-3.06000949 -0.16105313 -3.06000949 -0.16105313 0 0 Z " fill="#3A3A7B" transform="translate(33.375,27.125)"/>
<path d="M0 0 C9.57 0 19.14 0 29 0 C29 7.875 29 7.875 25.5 12.9375 C24.8503125 13.89527344 24.200625 14.85304688 23.53125 15.83984375 C23.0259375 16.55269531 22.520625 17.26554687 22 18 C21.34 17.01 20.68 16.02 20 15 C17.94074861 14.27617533 17.94074861 14.27617533 16 14 C17.875 9.25 17.875 9.25 19 7 C12.73 7 6.46 7 0 7 C0 4.69 0 2.38 0 0 Z " fill="#F79F48" transform="translate(23,15)"/>
<path d="M0 0 C2.97 0.495 2.97 0.495 6 1 C5.125 5.75 5.125 5.75 4 8 C10.27 8 16.54 8 23 8 C23 10.31 23 12.62 23 15 C13.43 15 3.86 15 -6 15 C-6 7.125 -6 7.125 -3 3.5625 C-2.443125 2.88316406 -1.88625 2.20382813 -1.3125 1.50390625 C-0.6628125 0.75947266 -0.6628125 0.75947266 0 0 Z " fill="#2A8E4B" transform="translate(29,44)"/>
<path d="M0 0 C0.61875 0.268125 1.2375 0.53625 1.875 0.8125 C2.205 1.8025 2.535 2.7925 2.875 3.8125 C3.865 3.1525 4.855 2.4925 5.875 1.8125 C8.5625 2.1875 8.5625 2.1875 10.875 2.8125 C10.875 4.4625 10.875 6.1125 10.875 7.8125 C13.35 8.3075 13.35 8.3075 15.875 8.8125 C15.545 10.4625 15.215 12.1125 14.875 13.8125 C14.27171875 13.72871094 13.6684375 13.64492188 13.046875 13.55859375 C12.24765625 13.45675781 11.4484375 13.35492188 10.625 13.25 C9.83609375 13.14558594 9.0471875 13.04117188 8.234375 12.93359375 C5.86967126 12.81222651 4.1238963 13.11616743 1.875 13.8125 C1.565625 12.719375 1.25625 11.62625 0.9375 10.5 C-0.03984105 5.75642508 -0.03984105 5.75642508 -3.1875 2.625 C-3.826875 2.356875 -4.46625 2.08875 -5.125 1.8125 C-2.125 -0.1875 -2.125 -0.1875 0 0 Z " fill="#5159A6" transform="translate(33.125,27.1875)"/>
<path d="M0 0 C2.97988189 0.24161205 4.79742699 0.86860129 7.3125 2.5 C9.8126123 6.20387008 9.33395379 9.65860068 9 14 C3.51459854 13.39051095 3.51459854 13.39051095 1.34765625 11.74609375 C-0.3322258 9.56955091 -0.51951851 8.09645451 -0.75 5.375 C-0.82734375 4.57835937 -0.9046875 3.78171875 -0.984375 2.9609375 C-0.98953125 2.31382813 -0.9946875 1.66671875 -1 1 C-0.67 0.67 -0.34 0.34 0 0 Z " fill="#303074" transform="translate(25,29)"/>
<path d="M0 0 C1.98 0 3.96 0 6 0 C5.67 1.65 5.34 3.3 5 5 C3.02 4.34 1.04 3.68 -1 3 C-0.67 2.01 -0.34 1.02 0 0 Z " fill="#41489C" transform="translate(43,36)"/>
</svg>
